HIERARCHY
ROOT Hips
{
	OFFSET 0.000000 0.000000 0.000000
	CHANNELS 6 Xposition Yposition Zposition Xrotation Yrotation Zrotation
	JOINT LeftUpLeg_virtual
	{
		OFFSET 0.000000 0.000000 0.000000
		CHANNELS 3 Xrotation Yrotation Zrotation
		JOINT LeftUpLeg
		{
			OFFSET 15.427100 -6.655098 0.678600
			CHANNELS 3 Xrotation Yrotation Zrotation
			JOINT LeftLeg
			{
				OFFSET 4.081073 -39.591068 13.024000
				CHANNELS 3 Xrotation Yrotation Zrotation
				JOINT LeftFoot
				{
					OFFSET -4.081074 -37.707932 -15.979700
					CHANNELS 3 Xrotation Yrotation Zrotation
					JOINT LeftToeBase
					{
						OFFSET 5.346399 -15.068900 20.645000
						CHANNELS 3 Xrotation Yrotation Zrotation
						JOINT LeftToe_End
						{
							OFFSET 2.754700 0.931300 11.300900
							CHANNELS 3 Xrotation Yrotation Zrotation
							End Site
							{
								OFFSET 0 0 0
							}
						}
					}
				}
			}
		}
	}
	JOINT RightUpLeg_virtual
	{
		OFFSET 0.000000 0.000000 0.000000
		CHANNELS 3 Xrotation Yrotation Zrotation
		JOINT RightUpLeg
		{
			OFFSET -15.569500 -6.655098 0.678600
			CHANNELS 3 Xrotation Yrotation Zrotation
			JOINT RightLeg
			{
				OFFSET -4.081825 -39.591045 13.023800
				CHANNELS 3 Xrotation Yrotation Zrotation
				JOINT RightFoot
				{
					OFFSET 4.081824 -37.707954 -15.979600
					CHANNELS 3 Xrotation Yrotation Zrotation
					JOINT RightToeBase
					{
						OFFSET -5.346400 -15.068900 20.645000
						CHANNELS 3 Xrotation Yrotation Zrotation
						JOINT RightToe_End
						{
							OFFSET -2.754700 0.931300 11.300900
							CHANNELS 3 Xrotation Yrotation Zrotation
							End Site
							{
								OFFSET 0 0 0
							}
						}
					}
				}
			}
		}
	}
	JOINT Spine_virtual
	{
		OFFSET 0.000000 0.000000 0.000000
		CHANNELS 3 Xrotation Yrotation Zrotation
		JOINT Spine
		{
			OFFSET -0.279200 12.230698 -2.892100
			CHANNELS 3 Xrotation Yrotation Zrotation
			JOINT Spine1
			{
				OFFSET -0.232667 10.192268 -1.242267
				CHANNELS 3 Xrotation Yrotation Zrotation
				JOINT Spine1_split
				{
					OFFSET -0.232667 10.192268 -1.242267
					CHANNELS 3 Xrotation Yrotation Zrotation
					JOINT Spine2
					{
						OFFSET -0.232667 10.192268 -1.242267
						CHANNELS 3 Xrotation Yrotation Zrotation
						JOINT Neck_virtual
						{
							OFFSET 0.000000 0.000000 0.000000
							CHANNELS 3 Xrotation Yrotation Zrotation
							JOINT Neck
							{
								OFFSET -0.418800 17.814194 8.416900
								CHANNELS 3 Xrotation Yrotation Zrotation
								JOINT Head
								{
									OFFSET 0.000000 7.031097 3.806800
									CHANNELS 3 Xrotation Yrotation Zrotation
									JOINT HeadTop_End
									{
										OFFSET 0.000000 24.646606 12.978600
										CHANNELS 3 Xrotation Yrotation Zrotation
										End Site
										{
											OFFSET 0 0 0
										}
									}
								}
							}
						}
						JOINT LeftShoulder_virtual
						{
							OFFSET 0.000000 0.000000 0.000000
							CHANNELS 3 Xrotation Yrotation Zrotation
							JOINT LeftShoulder
							{
								OFFSET 8.476499 7.247704 -3.868750
								CHANNELS 3 Xrotation Yrotation Zrotation
								JOINT LeftShoulder_split
								{
									OFFSET 8.476499 7.247704 -3.868750
									CHANNELS 3 Xrotation Yrotation Zrotation
									JOINT LeftArm
									{
										OFFSET 9.308998 -2.777710 0.208600
										CHANNELS 3 Xrotation Yrotation Zrotation
										JOINT LeftForeArm
										{
											OFFSET 29.972298 0.000000 0.000000
											CHANNELS 3 Xrotation Yrotation Zrotation
											JOINT LeftHand
											{
												OFFSET 26.026505 0.000000 0.000000
												CHANNELS 3 Xrotation Yrotation Zrotation
												End Site
												{
													OFFSET 0 0 0
												}
											}
										}
									}
								}
							}
						}
						JOINT RightShoulder_virtual
						{
							OFFSET 0.000000 0.000000 0.000000
							CHANNELS 3 Xrotation Yrotation Zrotation
							JOINT RightShoulder
							{
								OFFSET -7.570500 7.247704 -3.868750
								CHANNELS 3 Xrotation Yrotation Zrotation
								JOINT RightShoulder_split
								{
									OFFSET -7.570500 7.247704 -3.868750
									CHANNELS 3 Xrotation Yrotation Zrotation
									JOINT RightArm
									{
										OFFSET -9.308998 -2.777710 0.208500
										CHANNELS 3 Xrotation Yrotation Zrotation
										JOINT RightForeArm
										{
											OFFSET -29.972300 0.000000 0.000000
											CHANNELS 3 Xrotation Yrotation Zrotation
											JOINT RightHand
											{
												OFFSET -26.026505 0.000000 0.000000
												CHANNELS 3 Xrotation Yrotation Zrotation
												End Site
												{
													OFFSET 0 0 0
												}
											}
										}
									}
								}
							}
						}
					}
				}
			}
		}
	}
}
MOTION
Frames: 10
Frame Time: 0.03333333
-0.003858 74.367706 -0.357224 0.000000 0.000000 0.000000 11.754900 -49.677680 11.771186 -67.586279 25.164541 42.947144 43.279292 -19.356783 3.336693 8.272016 0.637543 -12.352763 -0.971720 -6.109426 0.594967 0.000000 0.000000 0.000000 11.754900 -49.677680 11.771186 -29.726759 0.631872 -30.303009 49.962885 5.852383 -4.864586 -26.770283 -5.250190 27.155381 0.528345 2.970060 1.471343 0.000000 0.000000 0.000000 11.754900 -49.677680 11.771186 10.996898 2.942038 -2.515436 6.100713 5.566518 -4.284675 0.000000 0.000000 0.000000 0.000000 0.000000 0.000000 -5.786925 6.328151 -3.046183 2.318704 9.363320 -0.265342 -4.146677 23.161952 -3.523375 0.000000 0.000000 0.000000 -5.786925 6.328151 -3.046183 -1.875343 -16.181700 -2.870486 0.000000 0.000000 0.000000 -10.644657 2.164726 -45.510575 -22.862381 -25.786292 -15.871736 0.000000 0.000000 0.000000 -5.786925 6.328151 -3.046183 -5.074598 24.343694 1.482627 0.000000 0.000000 0.000000 6.642400 -34.733681 57.610515 -21.031959 44.833867 19.961612 0.000000 0.000000 0.000000 
-0.322193 74.015533 0.637981 0.000000 0.000000 0.000000 23.126332 -51.281784 21.633137 -70.481712 24.040627 42.501743 44.517151 -18.201933 3.286192 5.658756 4.567000 -14.591970 -0.971720 -6.109425 0.594967 0.000000 0.000000 0.000000 23.126332 -51.281784 21.633137 -37.422603 4.503009 -29.966253 50.168914 5.860028 -4.942835 -25.859748 -4.612528 27.946754 0.528345 2.970061 1.471343 0.000000 0.000000 0.000000 23.126332 -51.281784 21.633137 1.945482 3.290550 -0.962799 3.783562 5.915588 -3.917738 0.000000 0.000000 0.000000 0.000000 0.000000 0.000000 -8.078003 6.563216 -2.613886 -5.256412 -4.314890 1.768454 -0.964761 7.189386 -0.581165 0.000000 0.000000 0.000000 -8.078003 6.563216 -2.613886 -2.338704 -9.267081 0.477312 0.000000 0.000000 0.000000 0.012352 1.464320 -49.562236 -21.267387 -30.655713 -14.789846 0.000000 0.000000 0.000000 -8.078003 6.563216 -2.613886 -5.306082 22.788516 3.827940 0.000000 0.000000 0.000000 7.662511 -36.585669 53.035497 -27.334607 45.566501 26.031878 0.000000 0.000000 0.000000 
-1.411278 73.732483 2.010746 0.000000 0.000000 0.000000 30.430723 -47.847230 28.891215 -73.373519 24.837711 39.368838 44.720797 -18.112598 3.244855 4.238580 6.082880 -14.988172 -0.971720 -6.109425 0.594967 0.000000 0.000000 0.000000 30.430723 -47.847230 28.891215 -40.088132 7.013899 -32.029988 50.257833 4.922933 -4.854814 -27.188929 -7.033831 29.281851 0.528345 2.970061 1.471344 0.000000 0.000000 0.000000 30.430723 -47.847230 28.891215 -3.501053 1.984147 0.440218 3.307904 3.506676 -3.997017 0.000000 0.000000 0.000000 0.000000 0.000000 0.000000 -8.328919 4.248532 -2.971353 -11.046994 -19.653101 9.678661 2.777023 -9.457398 3.013808 0.000000 0.000000 0.000000 -8.328919 4.248532 -2.971353 -3.066422 -7.807665 4.730872 0.000000 0.000000 0.000000 10.311691 1.423226 -52.599464 -19.446787 -36.074150 -13.613574 0.000000 0.000000 0.000000 -8.328919 4.248532 -2.971353 -5.187632 18.961585 9.196349 0.000000 0.000000 0.000000 7.063273 -38.893549 43.103920 -47.779355 56.035832 50.040517 0.000000 0.000000 0.000000 
-3.102348 73.907845 3.292881 0.000000 0.000000 0.000000 33.968252 -43.769013 32.827542 -74.339656 26.238621 35.999065 43.547278 -18.448168 3.169670 3.453026 6.641921 -15.336228 -0.971720 -6.109423 0.594967 0.000000 0.000000 0.000000 33.968252 -43.769013 32.827542 -39.975598 7.700895 -34.230702 49.780560 4.051415 -4.698685 -29.117230 -9.755951 29.828140 0.528345 2.970055 1.471343 0.000000 0.000000 0.000000 33.968252 -43.769013 32.827542 0.432996 -0.753246 1.487173 6.128181 -1.531148 -3.628614 0.000000 0.000000 0.000000 0.000000 0.000000 0.000000 -5.294945 -0.811230 -3.075680 -16.540978 -22.287167 11.383608 4.953937 -14.605687 8.980159 0.000000 0.000000 0.000000 -5.294945 -0.811230 -3.075680 -0.591741 -9.121287 1.921981 0.000000 0.000000 0.000000 1.513772 16.251808 -51.344605 -13.857633 -28.954736 -10.616518 0.000000 0.000000 0.000000 -5.294945 -0.811230 -3.075680 -3.519765 14.337042 12.950345 0.000000 0.000000 0.000000 -3.555353 -34.934888 30.547225 -76.330151 63.075124 82.817382 0.000000 0.000000 0.000000 
-5.956909 73.934189 4.346455 0.000000 0.000000 0.000000 35.272340 -41.852995 34.200007 -73.037050 26.472801 35.045100 42.545846 -19.255172 3.184098 2.186945 7.377429 -16.966369 -0.971720 -6.109424 0.594967 0.000000 0.000000 0.000000 35.272340 -41.852995 34.200007 -38.480589 6.418149 -34.544973 49.727226 3.624277 -4.775309 -32.155646 -11.021191 29.107073 0.528345 2.970055 1.471343 0.000000 0.000000 0.000000 35.272340 -41.852995 34.200007 8.767254 -3.824182 2.591589 10.629014 -7.985800 -2.385284 0.000000 0.000000 0.000000 0.000000 0.000000 0.000000 -0.790387 -7.362272 -2.055569 -16.206383 -14.060709 9.226302 -2.007106 -10.698965 11.861754 0.000000 0.000000 0.000000 -0.790387 -7.362272 -2.055569 4.756260 -15.894793 -1.244006 0.000000 0.000000 0.000000 -16.882218 38.629009 -37.688837 -8.098499 -17.855667 -7.600325 0.000000 0.000000 0.000000 -0.790387 -7.362272 -2.055569 -1.565894 10.918279 17.212299 0.000000 0.000000 0.000000 -15.854100 -21.529777 26.362346 -86.261649 67.025404 92.302849 0.000000 0.000000 0.000000 
-8.496460 73.888161 4.967239 0.000000 0.000000 0.000000 36.483052 -41.810142 34.391768 -71.966971 25.534819 36.313824 42.104698 -20.103945 3.261148 0.985122 8.376138 -18.820818 -0.971720 -6.109425 0.594967 0.000000 0.000000 0.000000 36.483052 -41.810142 34.391768 -37.491069 4.837887 -32.891715 49.525770 3.356137 -4.909601 -34.453284 -10.960407 28.045576 0.528345 2.970055 1.471343 0.000000 0.000000 0.000000 36.483052 -41.810142 34.391768 14.264077 -5.992055 3.404961 16.098160 -12.559836 -0.598847 0.000000 0.000000 0.000000 0.000000 0.000000 0.000000 4.727418 -11.847434 -0.297992 -9.105090 -7.678680 5.836506 -15.364063 -10.185844 14.338983 0.000000 0.000000 0.000000 4.727418 -11.847434 -0.297992 7.970236 -17.672022 -0.634233 0.000000 0.000000 0.000000 -32.617401 42.585447 -23.741548 -3.428583 -12.196202 -4.806349 0.000000 0.000000 0.000000 4.727418 -11.847434 -0.297992 -0.180003 10.283496 20.191132 0.000000 0.000000 0.000000 -23.570734 -4.571921 29.572253 -64.647221 68.981202 65.755536 0.000000 0.000000 0.000000 
-9.916443 73.178833 4.433228 0.000000 0.000000 0.000000 34.190957 -42.134696 33.623638 -69.930584 25.943758 36.597684 41.765825 -21.005058 3.281962 1.161125 8.456799 -19.933506 -0.971720 -6.109426 0.594967 0.000000 0.000000 0.000000 34.190957 -42.134696 33.623638 -35.915935 4.078076 -33.396835 51.734353 3.732611 -5.020211 -37.047868 -10.950104 26.997434 0.528345 2.970056 1.471343 0.000000 0.000000 0.000000 34.190957 -42.134696 33.623638 16.135357 -6.883546 3.109828 20.306620 -12.909525 -0.708274 0.000000 0.000000 0.000000 0.000000 0.000000 0.000000 9.038803 -11.952688 -0.910517 -8.475221 -5.132179 3.906986 -20.524707 -9.347963 13.389717 0.000000 0.000000 0.000000 9.038803 -11.952688 -0.910517 7.857617 -15.510574 0.857428 0.000000 0.000000 0.000000 -39.549237 27.778299 -22.150831 0.460920 -12.644652 -2.316808 0.000000 0.000000 0.000000 9.038803 -11.952688 -0.910517 -0.079122 10.824654 21.607812 0.000000 0.000000 0.000000 -24.893082 1.414278 30.835627 -50.605275 64.900089 49.137586 0.000000 0.000000 0.000000 
-10.925671 72.625069 3.656513 0.000000 0.000000 0.000000 28.251349 -42.204593 31.139058 -65.966568 27.792328 35.427273 40.696736 -22.158397 3.307999 2.234561 7.407172 -20.250606 -0.971720 -6.109424 0.594967 0.000000 0.000000 0.000000 28.251349 -42.204593 31.139058 -31.959954 2.283892 -35.718577 53.923421 4.424587 -5.069240 -39.795243 -11.090830 25.949354 0.528345 2.970056 1.471344 0.000000 0.000000 0.000000 28.251349 -42.204593 31.139058 17.862389 -7.170998 2.955456 23.297514 -10.887581 -1.499099 0.000000 0.000000 0.000000 0.000000 0.000000 0.000000 11.952280 -9.911145 -2.435650 -11.145675 -3.498632 -1.030158 -10.874132 -7.113168 8.428482 0.000000 0.000000 0.000000 11.952280 -9.911145 -2.435650 7.726073 -16.727463 -0.837818 0.000000 0.000000 0.000000 -45.095474 4.212430 -22.292657 3.286375 -13.461257 -0.509127 0.000000 0.000000 0.000000 11.952280 -9.911145 -2.435650 -0.023738 11.101611 20.238988 0.000000 0.000000 0.000000 -20.403556 -1.917465 31.086284 -50.216241 63.400200 47.479732 0.000000 0.000000 0.000000 
-11.647381 72.228157 3.030525 0.000000 0.000000 0.000000 24.831283 -42.192554 30.062169 -63.266362 28.918526 34.470083 39.759115 -22.831982 3.296432 3.027601 6.994448 -20.716655 -0.971720 -6.109424 0.594967 0.000000 0.000000 0.000000 24.831283 -42.192554 30.062169 -29.974507 1.180065 -37.295862 55.479632 5.057230 -5.102740 -41.600640 -11.023375 25.060657 0.528345 2.970056 1.471343 0.000000 0.000000 0.000000 24.831283 -42.192554 30.062169 18.630292 -7.486163 2.583511 27.041667 -9.988336 -1.799555 0.000000 0.000000 0.000000 0.000000 0.000000 0.000000 15.583131 -8.911978 -3.770865 -13.934566 0.996337 -0.717998 -2.351015 -1.837005 5.623801 0.000000 0.000000 0.000000 15.583131 -8.911978 -3.770865 6.379590 -18.740041 1.186680 0.000000 0.000000 0.000000 -45.361195 -10.884716 -28.073052 3.493919 -15.590390 -0.475379 0.000000 0.000000 0.000000 15.583131 -8.911978 -3.770865 -0.208172 12.255805 21.252012 0.000000 0.000000 0.000000 -19.035145 -3.307527 29.671790 -49.092442 63.227300 45.211973 0.000000 0.000000 0.000000 
-11.870914 72.000618 2.557220 0.000000 0.000000 0.000000 23.641252 -43.103271 29.469514 -62.234416 29.053302 35.054436 39.618960 -23.192027 3.281254 3.249306 7.242382 -21.143638 -0.971720 -6.109424 0.594967 0.000000 0.000000 0.000000 23.641252 -43.103271 29.469514 -29.813393 0.960002 -37.320983 56.401947 5.635252 -5.146420 -42.113000 -10.365592 24.401167 0.528345 2.970057 1.471343 0.000000 0.000000 0.000000 23.641252 -43.103271 29.469514 18.889382 -7.407455 2.422557 30.197021 -8.814367 -1.249307 0.000000 0.000000 0.000000 0.000000 0.000000 0.000000 18.780090 -7.608272 -3.913829 -13.967090 5.511033 -0.388687 2.394456 2.571365 4.674143 0.000000 0.000000 0.000000 18.780090 -7.608272 -3.913829 3.806157 -20.816181 2.574416 0.000000 0.000000 0.000000 -43.566638 -23.379422 -34.385310 2.022615 -21.267070 -0.316745 0.000000 0.000000 0.000000 18.780090 -7.608272 -3.913829 -0.362048 12.668191 22.685082 0.000000 0.000000 0.000000 -19.495993 -4.814932 26.067714 -50.939230 65.432024 46.330809 0.000000 0.000000 0.000000 
